<svg width="618" height="1024" viewBox="0 0 618 1024" fill="none" xmlns="http://www.w3.org/2000/svg">
<path d="M498.124 0C498.124 0 641.695 126.938 580.601 322.078C578.157 329.845 575.306 337.369 572.455 344.893C565.938 361.883 544.555 432.755 594.245 531.053C612.981 568.188 621.534 611.633 616.647 654.836C614.203 676.194 608.908 700.466 598.929 726.436C598.929 726.436 575.917 787.114 581.823 836.384C585.081 862.111 585.489 888.324 582.027 914.294C576.324 955.798 563.291 1007.25 533.355 1024H0V0H498.124Z" fill="url(#paint0_linear)"/>
<defs>
<linearGradient id="paint0_linear" x1="587.991" y1="512" x2="2.20439e-06" y2="512" gradientUnits="userSpaceOnUse">
<stop stop-color="#35ACF8"/>
<stop offset="1" stop-color="#0A6DBC"/>
</linearGradient>
</defs>
</svg>
